<svg width="16" height="12" viewBox="0 0 16 12" fill="none" xmlns="http://www.w3.org/2000/svg">
<path d="M15 12H1C0.447698 12 0 11.5523 0 11C0 10.4477 0.447698 10 1 10H15C15.5523 10 16 10.4477 16 11C16 11.5523 15.5523 12 15 12Z" fill="white"/>
<path d="M15 6.99997H1C0.447698 6.99997 0 6.55228 0 6C0 5.44773 0.447698 5 1 5H15C15.5523 5 16 5.4477 16 6C16 6.55231 15.5523 6.99997 15 6.99997Z" fill="white"/>
<path d="M15 2.00001H1C0.447698 2.00001 0 1.55231 0 1C0 0.447698 0.447698 0 1 0H15C15.5523 0 16 0.447698 16 1C16 1.55231 15.5523 2.00001 15 2.00001Z" fill="white"/>
</svg>
