<svg width="180" height="24" viewBox="0 0 180 24" fill="none" xmlns="http://www.w3.org/2000/svg">
<g clip-path="url(#clip0_1_5)">
<path d="M45.39 4.65002H62.84C63.981 4.37123 65.0247 3.78758 65.8596 2.96149C66.6945 2.1354 67.2891 1.09794 67.58 -0.039978H40.65C40.9429 1.09697 41.5382 2.13339 42.3728 2.95917C43.2074 3.78494 44.25 4.36924 45.39 4.65002Z" fill="white"/>
<path d="M45.39 13.94H62.84C63.9824 13.6642 65.0277 13.0816 65.8631 12.2551C66.6985 11.4285 67.2922 10.3894 67.58 9.25H40.65C40.9399 10.3884 41.5342 11.4264 42.3693 12.2527C43.2043 13.0789 44.2486 13.6622 45.39 13.94Z" fill="white"/>
<path d="M45.39 23.44H62.84C63.9824 23.1642 65.0277 22.5816 65.8631 21.7551C66.6985 20.9285 67.2922 19.8894 67.58 18.75H40.65C40.9399 19.8884 41.5342 20.9264 42.3693 21.7527C43.2043 22.5789 44.2486 23.1622 45.39 23.44Z" fill="white"/>
<path d="M157.81 4.70001H175.26C176.403 4.42527 177.449 3.84302 178.284 3.0163C179.12 2.18957 179.713 1.14989 180 0.0100098H153.07C153.361 1.14793 153.956 2.18539 154.79 3.01147C155.625 3.83756 156.669 4.42122 157.81 4.70001Z" fill="white"/>
<path d="M0 0.0500488C0.294797 1.1812 0.890079 2.21155 1.72278 3.03192C2.55548 3.8523 3.59456 4.43212 4.72998 4.71002H12.07L12.44 4.86005V23.39H17V4.86005L17.42 4.71002H24.77C25.8962 4.4174 26.925 3.83222 27.7521 3.01385C28.5793 2.19549 29.1754 1.17304 29.48 0.0500488H0Z" fill="white"/>
<path d="M140 23.44C140.994 23.0585 141.878 22.4385 142.576 21.6346C143.273 20.8307 143.762 19.8675 144 18.83H123.66V0.0300293H119.1V23.4301L140 23.44Z" fill="white"/>
<path d="M85.18 4.65002H101.3C102.453 4.36221 103.515 3.78918 104.389 2.98364C105.262 2.1781 105.92 1.16591 106.3 0.0400391H80.66V13.87H101.66V18.73H85.18C83.9261 19.0606 82.7566 19.653 81.7482 20.4683C80.7399 21.2835 79.9157 22.3032 79.33 23.46H80.66H106.12V9.27002H85.18V4.65002Z" fill="white"/>
<path d="M153.78 9.28998V23.44H158.32V14.02H174.84V23.44H179.37V9.30998L153.78 9.28998Z" fill="white"/>
</g>
<defs>
<clipPath id="clip0_1_5">
<rect width="180" height="23.47" fill="white"/>
</clipPath>
</defs>
</svg>
