<svg width="19" height="19" viewBox="0 0 19 19" fill="none" xmlns="http://www.w3.org/2000/svg">
<path d="M0 17.5C0 17.9602 0.372721 18.3333 0.833333 18.3333C1.29395 18.3333 1.66667 17.9602 1.66667 17.5C1.66667 14.5593 3.35958 11.9559 5.99838 10.7248C6.91162 11.3183 7.99805 11.6667 9.16585 11.6667C10.3381 11.6667 11.4287 11.3159 12.3441 10.7183C13.1318 11.0901 13.8618 11.5905 14.4694 12.1977C15.8862 13.6149 16.6667 15.498 16.6667 17.5C16.6667 17.9602 17.0394 18.3333 17.5 18.3333C17.9606 18.3333 18.3333 17.9602 18.3333 17.5C18.3333 15.0529 17.3796 12.7515 15.6478 11.0193C15.0683 10.4395 14.3948 9.94237 13.6723 9.53252C14.5008 8.52509 14.9992 7.23643 14.9992 5.83333C14.9992 2.61678 12.382 0 9.16585 0C5.94971 0 3.33252 2.61678 3.33252 5.83333C3.33252 7.23302 3.82889 8.51852 4.65373 9.52489C1.79306 11.1355 0 14.1448 0 17.5ZM9.16585 1.66667C11.4632 1.66667 13.3325 3.53597 13.3325 5.83333C13.3325 8.1307 11.4632 10 9.16585 10C6.86849 10 4.99919 8.1307 4.99919 5.83333C4.99919 3.53597 6.86849 1.66667 9.16585 1.66667Z" fill="white"/>
</svg>
